<svg viewBox="0 0 25.75 27.6699" xmlns="http://www.w3.org/2000/svg" xmlns:xlink="http://www.w3.org/1999/xlink" width="25.750000" height="27.669922" fill="none" customFrame="#000000">
	<g id="Investment Category Icon Group">
		<g id="Setting">
			<path id="Path_33946" d="M23.5733 6.69739C22.8702 5.47708 21.312 5.0561 20.09 5.7563C19.5084 6.09896 18.8143 6.19618 18.1608 6.02651C17.5074 5.85685 16.9483 5.43424 16.6068 4.85187C16.3871 4.48171 16.269 4.0601 16.2646 3.62968C16.2844 2.9396 16.024 2.27088 15.5428 1.77586C15.0616 1.28083 14.4005 1.00167 13.7102 1.00195L12.0358 1.00195C11.3594 1.00195 10.7109 1.27146 10.2338 1.75085C9.75674 2.23025 9.49034 2.88 9.49359 3.55635C9.47354 4.95276 8.33575 6.07422 6.9392 6.07407C6.50877 6.0696 6.08716 5.95155 5.717 5.73186C4.49501 5.03166 2.93685 5.45263 2.23374 6.67295L1.34153 8.13959C0.639276 9.35837 1.05453 10.9156 2.2704 11.6228C3.06074 12.0791 3.54761 12.9224 3.54761 13.835C3.54761 14.7476 3.06074 15.5909 2.2704 16.0472C1.05607 16.7497 0.640367 18.3031 1.34153 19.5182L2.18485 20.9727C2.51428 21.5671 3.06702 22.0057 3.72074 22.1915C4.37447 22.3773 5.07528 22.295 5.66811 21.9626C6.25089 21.6226 6.94537 21.5294 7.59717 21.7038C8.24898 21.8783 8.8041 22.3058 9.13915 22.8915C9.35885 23.2617 9.4769 23.6833 9.48137 24.1137C9.48137 25.5245 10.625 26.6681 12.0358 26.6681L13.7102 26.6681C15.1162 26.6681 16.2578 25.5319 16.2646 24.1259C16.2613 23.4475 16.5294 22.7958 17.0091 22.3161C17.4889 21.8363 18.1405 21.5683 18.819 21.5715C19.2483 21.583 19.6682 21.7006 20.0411 21.9137C21.2599 22.616 22.8171 22.2008 23.5244 20.9849L24.4044 19.5182C24.745 18.9336 24.8385 18.2373 24.6642 17.5835C24.4898 16.9297 24.062 16.3724 23.4755 16.035C22.889 15.6976 22.4612 15.1403 22.2869 14.4865C22.1125 13.8327 22.206 13.1364 22.5467 12.5517C22.7682 12.165 23.0888 11.8443 23.4755 11.6228C24.6841 10.9159 25.0984 9.36785 24.4044 8.15181L24.4044 8.13959L23.5733 6.69739Z" fill-rule="evenodd" stroke="rgb(9,9,9)" stroke-linecap="round" stroke-linejoin="round" stroke-width="2.00287557" />
			<circle id="Ellipse_737" cx="12.879303" cy="13.8343811" r="3.51992774" stroke="rgb(9,9,9)" stroke-linecap="round" stroke-linejoin="round" stroke-width="2.00287557" />
		</g>
	</g>
</svg>
