<svg viewBox="0 0 28.75 27.7852" xmlns="http://www.w3.org/2000/svg" xmlns:xlink="http://www.w3.org/1999/xlink" width="28.750000" height="27.785156" fill="none" customFrame="#000000">
	<g id="Group 1000008232">
		<g id="Group">
			<g id="Group">
				<path id="Vector" d="M24.6063 25.739L3.45391 25.739C2.65659 25.739 2.04688 25.1303 2.04688 24.3343L2.04688 3.21719C2.04688 2.4212 2.65659 1.8125 3.45391 1.8125L24.6063 1.8125C25.4036 1.8125 26.0133 2.4212 26.0133 3.21719L26.0133 24.3343C26.0133 25.0835 25.4036 25.739 24.6063 25.739ZM4.86094 22.9296L23.1993 22.9296L23.1993 4.62187L4.86094 4.62187L4.86094 22.9296Z" fill="rgb(9,9,9)" fill-rule="nonzero" />
				<path id="Vector" d="M3.45391 25.739L24.6063 25.739C25.4036 25.739 26.0133 25.0835 26.0133 24.3343L26.0133 3.21719C26.0133 2.4212 25.4036 1.8125 24.6063 1.8125L3.45391 1.8125C2.65659 1.8125 2.04688 2.4212 2.04688 3.21719L2.04688 24.3343C2.04688 25.1303 2.65659 25.739 3.45391 25.739ZM24.6063 25.239L3.45391 25.239C3.29261 25.239 3.14827 25.2061 3.02091 25.1404C2.94237 25.0999 2.87029 25.0468 2.80466 24.9813C2.73832 24.9151 2.68479 24.8423 2.64406 24.7629C2.57927 24.6367 2.54688 24.4938 2.54688 24.3343L2.54688 3.21719C2.54688 3.0577 2.57927 2.91483 2.64406 2.78858C2.68479 2.70922 2.73832 2.63642 2.80466 2.5702C2.87029 2.50467 2.94238 2.45164 3.02092 2.4111C3.14828 2.34537 3.29261 2.3125 3.45391 2.3125L24.6063 2.3125C24.7676 2.3125 24.9119 2.34537 25.0393 2.4111C25.1178 2.45164 25.1899 2.50467 25.2555 2.5702C25.3219 2.63642 25.3754 2.70922 25.4161 2.78859C25.4809 2.91483 25.5133 3.0577 25.5133 3.21719L25.5133 24.3343C25.5133 24.3837 25.5093 24.4325 25.5012 24.4806C25.49 24.5474 25.471 24.613 25.4442 24.6773C25.423 24.728 25.3978 24.776 25.3685 24.8215C25.3349 24.8737 25.2959 24.9225 25.2515 24.9678C25.1632 25.058 25.0655 25.1257 24.9583 25.1709C24.8505 25.2163 24.7332 25.239 24.6063 25.239ZM4.36094 23.4296L23.6993 23.4296L23.6993 4.12187L4.36094 4.12187L4.36094 23.4296ZM23.1993 5.12187L23.1993 22.9296L4.86094 22.9296L4.86094 4.62187L23.1993 4.62187L23.1993 5.12187Z" fill="rgb(255,255,255)" fill-rule="evenodd" />
			</g>
		</g>
		<g id="Group 1000008228">
			<path id="Vector 413" d="M0 0L2.09375 0" stroke="rgb(9,9,9)" stroke-linecap="round" stroke-width="2" transform="matrix(1.60812e-16,1,-1,1.60812e-16,18.2109,1)" />
			<path id="Vector 414" d="M0 0L2.09375 0" stroke="rgb(9,9,9)" stroke-linecap="round" stroke-width="2" transform="matrix(1.60812e-16,1,-1,1.60812e-16,9.86719,1)" />
		</g>
		<g id="Group 1000008231">
			<path id="Vector 413" d="M0 0L2.09375 0" stroke="rgb(9,9,9)" stroke-linecap="round" stroke-width="2" transform="matrix(1.60812e-16,1,-1,1.60812e-16,18.2109,24.6914)" />
			<path id="Vector 414" d="M0 0L2.09375 0" stroke="rgb(9,9,9)" stroke-linecap="round" stroke-width="2" transform="matrix(1.60812e-16,1,-1,1.60812e-16,9.86719,24.6914)" />
		</g>
		<g id="Group 1000008229">
			<path id="Vector 413" d="M0 0L2.09375 0" stroke="rgb(9,9,9)" stroke-linecap="round" stroke-width="2" transform="matrix(-1,-4.37114e-08,4.37114e-08,-1,27.75,17.9746)" />
			<path id="Vector 414" d="M0 0L2.09375 0" stroke="rgb(9,9,9)" stroke-linecap="round" stroke-width="2" transform="matrix(-1,-4.37114e-08,4.37114e-08,-1,27.75,9.63086)" />
		</g>
		<g id="Group 1000008230">
			<path id="Vector 413" d="M0 0L2.09375 0" stroke="rgb(9,9,9)" stroke-linecap="round" stroke-width="2" transform="matrix(-1,-4.37114e-08,4.37114e-08,-1,3.09375,17.9746)" />
			<path id="Vector 414" d="M0 0L2.09375 0" stroke="rgb(9,9,9)" stroke-linecap="round" stroke-width="2" transform="matrix(-1,-4.37114e-08,4.37114e-08,-1,3.09375,9.63086)" />
		</g>
	</g>
</svg>
