<svg width="78" height="43" viewBox="0 0 78 43" fill="none" xmlns="http://www.w3.org/2000/svg">
<g clip-path="url(#clip0_12677_5416)">
<path d="M71.9195 27.9471C71.8936 27.9015 71.8662 27.8843 71.8287 27.8529C59.2064 39.8829 36.5548 28.6761 21.3495 27.9828C23.5406 21.8872 25.5329 15.6732 28.0021 9.67606C28.924 7.54339 29.7178 5.28661 31.265 3.50345C33.132 2.01415 32.0559 1.80445 30.2868 2.21243C28.2974 2.67463 26.4707 3.94282 25.3946 5.6675C22.7901 10.9842 21.0758 16.9385 17.0912 21.5049C16.2196 22.6875 13.4076 25.3337 12.621 22.7916C12.5764 16.7502 19.3053 10.017 18.84 4.09403C18.4669 1.10117 14.9879 -0.27972 12.2724 0.0469567C5.66306 -0.141346 -3.83754 9.52057 1.62945 15.445C3.72837 17.3579 8.31084 16.2367 7.80232 13.0084C7.68563 12.9813 7.67987 12.9913 7.58191 13.0527C5.51468 14.9985 4.01792 11.7773 4.62297 9.9471C5.4124 5.93569 9.07579 1.28519 13.5056 1.43355C15.1579 1.71743 15.6707 3.53911 15.1925 4.94995C13.8729 10.9599 5.604 18.6917 8.63641 25.0398C12.5937 29.5206 17.9785 23.2281 20.1625 19.823C19.144 22.609 18.0218 25.3979 16.8751 28.134C-13.7617 32.4721 9.23281 58.3822 20.6206 29.629C34.3694 31.8929 47.3865 40.1582 61.6784 37.6575C66.6369 36.9628 71.9411 33.2866 71.918 27.9471H71.9195ZM13.4364 35.6589C5.72212 47.9328 0.0275274 32.1354 16.2124 29.7431C16.2542 30.2067 13.8643 34.9371 13.4364 35.6589Z" fill="white"/>
<path d="M77.81 19.21C77.2108 16.4012 73.8629 13.4069 76.1793 10.6237C76.4775 10.3242 77.3937 9.83771 77.2626 9.35554C75.4648 7.47537 72.1342 9.44827 71.3361 11.501C70.9803 12.3313 70.9342 13.1102 70.9644 13.9989C69.9675 15.8662 67.0071 21.541 64.9803 22.2058C62.0256 22.3513 65.9483 16.8491 66.5433 15.7721C69.4777 12.2871 65.1214 11.7364 62.5053 11.0217C63.3409 9.66938 62.7762 7.77066 60.9279 8.03457C58.9039 8.3427 58.3767 11.1886 59.8532 12.4311C58.6532 15.5966 57.2732 18.8334 54.9423 21.3627C54.4496 21.8563 53.3418 23.3156 52.7166 22.2899C52.4112 18.638 55.5056 15.8163 55.9651 12.3955C54.987 11.2642 53.5147 10.9704 52.0597 11.0203C51.2631 14.7721 49.8672 18.367 47.3577 21.3356C46.7008 22.0702 45.9013 23.2799 44.7891 23.1772C43.4998 22.1972 45.8062 17.8991 46.2629 16.6409C48.2508 13.23 48.1313 11.4026 43.6885 11.3826C43.4379 14.2842 41.9138 17.5581 38.9505 18.5595C39.8768 16.1487 39.2861 12.6708 36.647 11.6095C31.9882 10.4668 28.0136 15.0845 26.6537 19.0374C24.8602 23.0374 27.1853 29.4739 32.406 27.1102C35.133 25.7849 36.9438 22.9732 38.1855 20.3299C39.5296 20.1558 40.4588 19.4326 41.5464 18.7165C40.7915 20.9048 39.0023 23.8206 40.7382 25.9233C43.8023 28.0503 46.9745 24.4283 48.5707 22.0859C48.0521 23.6894 48.5318 25.8306 50.4765 26.1016C55.7966 26.4411 59.3678 17.0303 61.3428 13.0988C67.0331 13.5467 58.2614 19.5852 60.0434 23.6865C61.6583 27.1558 65.5507 24.9533 67.0028 22.5196C67.3082 23.6965 67.8758 24.4254 68.9318 25.046C73.3284 27.9162 79.1397 24.4839 77.81 19.21ZM32.4232 24.6137C31.8081 24.9247 31.0792 24.7407 30.6268 24.2414C28.646 21.5881 31.3889 17.1045 33.2948 15.0603C33.1507 17.1501 33.737 19.1159 35.9238 19.8933C35.1531 21.4283 34.0136 23.8406 32.4232 24.6137ZM36.526 18.2314C36.4741 18.3356 36.4698 18.367 36.3546 18.404C34.5121 17.5895 34.1087 14.9875 35.424 13.5496C37.448 13.5724 37.131 16.9861 36.526 18.2314ZM72.8746 23.1815C71.4312 24.8349 68.9318 23.1729 69.3726 21.2143C69.9128 19.133 71.1358 17.25 71.8446 15.2157C73.1815 17.4369 74.8093 20.8548 72.8746 23.1815Z" fill="white"/>
</g>
<defs>
<clipPath id="clip0_12677_5416">
<rect width="78" height="43" fill="white"/>
</clipPath>
</defs>
</svg>
