<svg width="210" height="29" viewBox="0 0 210 29" fill="none" xmlns="http://www.w3.org/2000/svg">
<path d="M168.312 28.1109V8.27268H173.453L173.372 14.1358H173.413C174.738 10.0798 177.71 7.87109 182.609 7.87109C187.95 7.87109 190.841 10.3208 191.564 14.0956H191.604C192.689 9.91917 196.062 7.87109 200.921 7.87109C207.186 7.87109 209.997 11.1641 209.997 16.465V28.1109H204.857V17.7902C204.857 14.0956 203.21 12.0877 199.034 12.0877C195.701 12.0877 191.725 14.0956 191.725 19.1154V28.1109H186.585V17.7902C186.585 14.0956 184.898 12.0877 180.721 12.0877C177.388 12.0877 173.453 14.3366 173.453 19.1154V28.1109H168.312Z" fill="white"/>
<path d="M148.588 28.5133C140.878 28.5133 137.625 24.2565 137.625 19.4776V8.27344H142.765V18.3933C142.765 22.0478 144.613 24.2966 150.275 24.2966C155.375 24.2966 159.712 21.4052 159.712 16.3854V8.27344H164.852V28.1117H159.712C159.792 26.666 159.873 24.0155 159.873 21.9674H159.792C158.588 26.425 155.014 28.5133 148.588 28.5133Z" fill="white"/>
<path d="M134.786 17.7902V19.3965H114.305C114.667 22.4084 116.594 24.8581 122.658 24.8581C127.919 24.8581 129.766 23.2919 130.088 21.6454H134.786C134.545 25.099 131.132 28.5125 122.658 28.5125C112.177 28.5125 109.125 23.2919 109.125 18.3524C109.125 12.0074 113.984 7.87109 122.337 7.87109C130.811 7.87109 134.786 11.646 134.786 17.7902ZM130.088 16.3044V16.1839C130.088 13.5334 127.959 11.5255 122.538 11.5255C117.558 11.5255 115.149 13.2122 114.466 16.3044H130.088Z" fill="white"/>
<path d="M93.8556 28.5125C83.5751 28.5125 81.9688 24.4967 81.9688 21.5249H86.8279C86.8681 23.1714 87.6712 24.8581 93.8556 24.8581C99.9597 24.8581 101.325 23.6935 101.325 22.1273C101.325 21.3242 101.004 20.7218 99.7188 20.4407C98.3132 20.1596 95.3013 20.0792 92.7312 19.9989C88.635 19.8784 85.6232 19.3966 84.0972 18.5532C82.6113 17.7501 81.9688 16.224 81.9688 14.5775C81.9688 10.5617 86.2657 7.87109 93.8556 7.87109C103.293 7.87109 105.301 11.2444 105.301 14.9791H100.442C100.401 13.0114 99.4377 11.5255 94.0163 11.5255C89.3177 11.5255 87.109 12.4491 87.109 14.3366C87.109 15.1398 87.5106 15.702 88.7957 15.9831C90.2012 16.3445 92.7714 16.3445 95.9037 16.5051C99.4377 16.6658 102.048 16.9067 103.775 17.6296C105.622 18.4729 106.465 20.0792 106.465 21.9667C106.465 25.0187 104.176 28.5125 93.8556 28.5125Z" fill="white"/>
<path d="M73.3672 5.42205V0.763672H78.7886V5.42205H73.3672ZM73.4877 28.1115V8.27329H78.6279V28.1115H73.4877Z" fill="white"/>
<path d="M64.5234 28.1109V0H69.6637V28.1109H64.5234Z" fill="white"/>
<path d="M47.7543 28.5125C37.8754 28.5125 34.1406 23.4927 34.1406 18.232C34.1406 13.0114 37.9958 7.87109 47.7543 7.87109C57.5128 7.87109 61.368 13.0114 61.368 18.232C61.368 23.4927 57.5931 28.5125 47.7543 28.5125ZM47.7543 24.4967C53.9789 24.4967 56.2277 21.5249 56.2277 18.232C56.2277 14.939 53.9387 11.8869 47.7543 11.8869C41.5699 11.8869 39.2809 14.939 39.2809 18.232C39.2809 21.4848 41.5298 24.4967 47.7543 24.4967Z" fill="white"/>
<path d="M16.4248 28.5931C4.21663 28.5931 0 21.6457 0 14.9794C0 7.38947 5.54186 1.20508 16.1838 1.20508C27.5085 1.20508 31.3235 7.42963 31.3235 11.7266V12.2486H26.3037V12.088C26.3037 9.31707 23.573 5.58234 16.4649 5.58234C9.43722 5.58234 5.70249 9.55802 5.70249 14.9794C5.70249 19.7181 8.79469 24.2158 16.5453 24.2158C23.2115 24.2158 26.4644 21.1638 26.4644 17.8306V17.5897H31.4842V18.0314C31.4842 23.0111 27.1471 28.5931 16.4248 28.5931Z" fill="white"/>
</svg>
