<svg width="262" height="60" viewBox="0 0 262 60" fill="none" xmlns="http://www.w3.org/2000/svg">
<path d="M117.825 21.5406V18.1442C117.825 18.0096 117.716 17.9004 117.582 17.9004H98.2667C98.1324 17.9004 98.0234 18.0096 98.0234 18.1442V21.5406H105.873V43.2686C105.873 43.4032 105.982 43.5124 106.117 43.5124H109.731C109.866 43.5124 109.975 43.4032 109.975 43.2686V21.5406H117.825Z" fill="white"/>
<path d="M186.838 18.4105L186.931 18.3085C187.073 18.1519 186.963 17.9004 186.751 17.9004H182.261L182.17 18.0061C181.574 18.6989 180.833 19.5129 179.947 20.4487C179.084 21.3615 178.161 22.3227 177.177 23.3319C176.194 24.3408 175.199 25.3497 174.192 26.3587C173.387 27.1465 172.635 27.8726 171.937 28.537V17.9004H168.079C167.945 17.9004 167.836 18.0096 167.836 18.1442V43.2686C167.836 43.4032 167.945 43.5124 168.079 43.5124H171.937V31.8933C172.784 32.4489 173.65 33.0989 174.534 33.8441L174.536 33.8452L174.537 33.8462C175.608 34.7288 176.656 35.6954 177.682 36.7462L177.684 36.7487L177.686 36.7512C178.734 37.7771 179.723 38.8631 180.652 40.0084L180.653 40.0099L180.654 40.011C181.583 41.1326 182.403 42.2527 183.116 43.3717L183.206 43.5124H187.583C187.77 43.5124 187.887 43.3099 187.794 43.1471L187.741 43.056C187.085 41.9107 186.26 40.7081 185.269 39.4489C184.303 38.1911 183.266 36.9581 182.156 35.7496C181.046 34.5409 179.912 33.4042 178.753 32.3398C177.703 31.3758 176.7 30.548 175.744 29.8577C176.557 29.0625 177.419 28.2086 178.33 27.2961C179.339 26.285 180.348 25.2619 181.357 24.2269C182.39 23.1676 183.376 22.1444 184.313 21.1572L184.314 21.1559L184.316 21.1545C185.252 20.1438 186.093 19.2291 186.838 18.4105Z" fill="white"/>
<path d="M208.937 43.3635L209.025 43.5124H212.176C212.31 43.5124 212.419 43.4032 212.419 43.2686V18.1442C212.419 18.0096 212.31 17.9004 212.176 17.9004H208.39V35.6382C207.733 34.5897 206.969 33.4356 206.1 32.176C204.993 30.5367 203.803 28.8737 202.528 27.1871C201.278 25.4766 200.003 23.8259 198.704 22.2353C197.428 20.6194 196.222 19.2062 195.088 17.9964L194.997 17.9004H192.032C191.898 17.9004 191.789 18.0096 191.789 18.1442V43.2686C191.789 43.4032 191.898 43.5124 192.032 43.5124H195.818V24.5107C196.336 25.1232 196.887 25.802 197.471 26.5473C198.261 27.5543 199.075 28.6337 199.914 29.7856L199.914 29.7869L199.916 29.7881C200.753 30.9153 201.591 32.0906 202.429 33.3142L202.43 33.3159L202.432 33.3175C203.294 34.5417 204.121 35.7538 204.911 36.9536L204.912 36.9548L204.913 36.956C205.702 38.1311 206.432 39.2696 207.102 40.3717L207.103 40.3736L207.104 40.3759C207.799 41.4806 208.41 42.4762 208.937 43.3635Z" fill="white"/>
<path d="M218.369 17.9004C218.234 17.9004 218.125 18.0096 218.125 18.1442V43.2686C218.125 43.4032 218.234 43.5124 218.369 43.5124H234.623C234.757 43.5124 234.866 43.4032 234.866 43.2686V39.9086H222.226V31.8591H232.669V28.3272H222.226V21.5045H233.966V18.1442C233.966 18.0096 233.857 17.9004 233.723 17.9004H218.369Z" fill="white"/>
<path d="M258.357 21.5406V18.1442C258.357 18.0096 258.248 17.9004 258.113 17.9004H238.798C238.664 17.9004 238.555 18.0096 238.555 18.1442V21.5406H246.405V43.5124H250.506V21.5406H258.357Z" fill="white"/>
<path d="M79.929 43.201L79.9283 43.2006C78.4405 42.5654 77.2031 41.6586 76.2221 40.4789L76.2206 40.4774L76.2198 40.4762C75.2486 39.2815 74.6183 37.8734 74.3252 36.2589C74.3106 36.1781 74.3289 36.0949 74.3765 36.0279C74.4236 35.961 74.4963 35.9161 74.5771 35.9033L77.8487 35.3867C78.0037 35.3622 78.1515 35.4597 78.1905 35.6118C78.5883 37.1595 79.4065 38.3609 80.6473 39.2316C81.9064 40.0949 83.3915 40.5314 85.1147 40.5314C86.2327 40.5314 87.2317 40.3581 88.1161 40.0176C89.0111 39.6659 89.7054 39.172 90.2121 38.5427C90.7111 37.9236 90.9626 37.1906 90.9626 36.3291C90.9626 35.7942 90.8683 35.3564 90.6927 35.0046C90.6908 35.0014 90.6893 34.9982 90.6879 34.995C90.5168 34.6202 90.278 34.3071 89.9707 34.0521C89.9677 34.0496 89.9647 34.0472 89.9617 34.0446C89.653 33.7683 89.2985 33.5348 88.8965 33.3446C88.4856 33.1501 88.0566 32.9897 87.6105 32.8636L87.6064 32.8624L81.0803 30.9204C80.3538 30.7021 79.6513 30.429 78.9731 30.1014L78.9712 30.1005L78.969 30.0995C78.2803 29.7544 77.6635 29.3282 77.1196 28.8206L77.1178 28.819L77.117 28.8181C76.5657 28.2908 76.1285 27.6641 75.8048 26.9409L75.804 26.9391C75.4754 26.1915 75.3159 25.3226 75.3159 24.34C75.3159 22.7649 75.7224 21.4049 76.5485 20.2763L76.5488 20.2758C77.3783 19.1467 78.497 18.2887 79.8938 17.6994C81.2888 17.111 82.8537 16.8261 84.5836 16.8383C86.3372 16.8504 87.9144 17.1655 89.3094 17.7905C90.7152 18.4031 91.8811 19.2876 92.8018 20.4437C93.7368 21.6022 94.36 22.9848 94.677 24.5835C94.6927 24.664 94.6755 24.7475 94.6295 24.8152C94.583 24.8829 94.5116 24.929 94.4307 24.9431L91.0704 25.531C90.9907 25.5449 90.9087 25.5265 90.8424 25.4798C90.7766 25.433 90.7316 25.3619 90.7182 25.2819C90.5482 24.2843 90.1717 23.4382 89.5919 22.7348L89.589 22.7307C89.0159 22.0103 88.2969 21.4583 87.4278 21.0738L87.4248 21.0724C86.5539 20.6758 85.5946 20.4699 84.5425 20.4584C83.5341 20.4469 82.6329 20.6077 81.8338 20.9346C81.0328 21.2625 80.4074 21.7149 79.9462 22.2869L79.9444 22.2891C79.4922 22.8395 79.2669 23.4714 79.2669 24.1975C79.2669 24.9185 79.472 25.4747 79.8605 25.8951C80.2793 26.3368 80.7947 26.6934 81.4108 26.9631C82.0639 27.2317 82.698 27.453 83.3129 27.6275L83.3144 27.6279L88.1846 29.0347C88.7524 29.1921 89.4007 29.4089 90.1287 29.6839C90.8907 29.9672 91.6254 30.3664 92.3328 30.8795C93.0612 31.3955 93.6589 32.0845 94.1287 32.9389C94.6115 33.8045 94.8428 34.8809 94.8428 36.1509C94.8428 37.4275 94.5853 38.575 94.0624 39.5856C93.5549 40.5899 92.8422 41.4332 91.9282 42.1139L91.9264 42.1154C91.0176 42.7799 89.9655 43.2816 88.7738 43.6229C87.582 43.9761 86.3083 44.1516 84.9549 44.1516C83.1063 44.1516 81.4295 43.8366 79.929 43.201Z" fill="white"/>
<path fill-rule="evenodd" clip-rule="evenodd" d="M134.809 40.131L134.81 40.1321L134.81 40.1332C135.171 41.1701 135.556 42.231 135.965 43.3155L136.039 43.5124H140.153C140.322 43.5124 140.44 43.3444 140.382 43.1854L140.352 43.1036C139.392 40.4572 138.491 38.0149 137.65 35.777C136.81 33.5143 135.981 31.3716 135.164 29.3488C134.371 27.3262 133.577 25.3994 132.784 23.5686C131.987 21.7075 131.15 19.8649 130.277 18.0387C130.237 17.9542 130.152 17.9004 130.058 17.9004H126.776C126.683 17.9004 126.597 17.9542 126.557 18.0387C125.684 19.8649 124.847 21.7074 124.051 23.5684C123.258 25.3987 122.452 27.3251 121.635 29.3474L121.635 29.3488L121.634 29.3503C120.841 31.3724 120.025 33.5146 119.184 35.7769C118.343 38.0149 117.442 40.4572 116.482 43.1036L116.452 43.1854C116.395 43.3444 116.512 43.5124 116.681 43.5124H120.62H121.64L121.73 43.4152C122.68 42.3934 123.742 41.3902 124.916 40.4066L124.918 40.4055L124.919 40.4047C126.097 39.3964 127.326 38.4611 128.606 37.599L128.608 37.5971L128.611 37.5949C129.872 36.703 131.14 35.9025 132.416 35.1934L132.417 35.1926L132.419 35.1918C132.607 35.0845 132.794 34.9802 132.98 34.8789L133.693 36.9225L133.694 36.9231L133.695 36.925C134.078 38.0057 134.449 39.0746 134.809 40.131ZM130.383 27.982L130.384 27.9842L130.385 27.9863C130.779 28.9867 131.174 30.0064 131.568 31.0451C130.557 31.5444 129.486 32.1494 128.357 32.8593C126.956 33.7393 125.568 34.6987 124.191 35.7373C123.813 36.0222 123.44 36.3101 123.073 36.6009L123.979 34.0076C124.719 31.9282 125.458 29.9204 126.198 27.9841C126.878 26.2379 127.587 24.5583 128.323 22.9453C129.038 24.5577 129.725 26.2366 130.383 27.982Z" fill="white"/>
<path fill-rule="evenodd" clip-rule="evenodd" d="M144.548 17.7076C144.414 17.7076 144.305 17.8168 144.305 17.9514V43.2833C144.305 43.4179 144.414 43.527 144.548 43.527H148.023V34.2134H153.1C153.671 34.8986 154.228 35.6155 154.772 36.3641L154.773 36.3669L154.776 36.3697C155.664 37.5371 156.485 38.7548 157.239 40.023L157.24 40.0241L157.241 40.0256C157.923 41.148 158.519 42.2565 159.028 43.3511L159.11 43.527H163.223C163.399 43.527 163.517 43.3451 163.443 43.1846C162.97 42.1463 162.458 41.1293 161.889 40.1389C161.115 38.7544 160.266 37.3838 159.343 36.0271C158.815 35.2517 158.276 34.4984 157.726 33.7673C159.26 33.2974 160.474 32.4477 161.352 31.2144L161.352 31.2134C162.406 29.7208 162.928 27.9654 162.928 25.9604C162.928 24.5826 162.689 23.3219 162.205 22.1828C161.72 21.0271 160.989 20.0687 160.015 19.3125C159.049 18.5524 157.857 18.0686 156.454 17.8517C156.127 17.7913 155.789 17.7551 155.441 17.7428C155.101 17.7194 154.804 17.7074 154.551 17.7074C153.485 17.7074 152.419 17.7073 151.352 17.7072C149.084 17.707 146.816 17.7068 144.548 17.7076ZM159.14 25.9604C159.14 26.6258 159.029 27.2807 158.807 27.9261C158.59 28.546 158.243 29.0894 157.764 29.5589C157.309 30.0035 156.71 30.3188 155.951 30.4953C155.711 30.55 155.452 30.5888 155.174 30.6111L155.173 30.6111L155.172 30.6112C154.899 30.634 154.657 30.6451 154.446 30.6451H148.023V21.2757H154.446C154.657 21.2757 154.899 21.2868 155.172 21.3097L155.179 21.3102L155.186 21.3104C155.456 21.3213 155.707 21.3591 155.939 21.4225L155.947 21.4246L155.954 21.4263C156.711 21.591 157.308 21.9052 157.761 22.3594L157.762 22.3606L157.764 22.3619C158.242 22.8307 158.589 23.3795 158.807 24.0115L158.807 24.0122L158.808 24.013C159.029 24.6461 159.14 25.2947 159.14 25.9604Z" fill="white"/>
</svg>
