<svg width="149" height="11" viewBox="0 0 149 11" fill="none" xmlns="http://www.w3.org/2000/svg">
<path d="M5.12988 1.34405C4.54188 1.34405 4.03788 1.45138 3.61787 1.66605C3.20721 1.88071 2.86654 2.17005 2.59588 2.53405C2.33454 2.89805 2.14321 3.31805 2.02188 3.79405C1.90054 4.26071 1.83988 4.75071 1.83988 5.26405C1.83988 5.81471 1.90521 6.33271 2.03588 6.81805C2.16654 7.30338 2.36721 7.72805 2.63788 8.09205C2.90854 8.44671 3.25388 8.73138 3.67388 8.94605C4.09388 9.15138 4.59321 9.25405 5.17188 9.25405C5.87188 9.25405 6.45988 9.10938 6.93588 8.82005C7.41188 8.53071 7.71988 8.14338 7.85988 7.65805H9.18988C8.97521 8.47938 8.52254 9.13738 7.83187 9.63205C7.14121 10.1174 6.24521 10.36 5.14388 10.36C4.37854 10.36 3.71121 10.234 3.14188 9.98205C2.57254 9.73005 2.09654 9.38005 1.71388 8.93205C1.34054 8.48405 1.06054 7.95205 0.873875 7.33605C0.687208 6.72005 0.593875 6.04338 0.593875 5.30605C0.593875 4.57805 0.687208 3.90605 0.873875 3.29005C1.06054 2.67405 1.34521 2.14205 1.72788 1.69405C2.11054 1.23671 2.58654 0.882046 3.15588 0.630046C3.72521 0.368713 4.39721 0.238046 5.17188 0.238046C5.71321 0.238046 6.19854 0.30338 6.62788 0.434046C7.06654 0.564713 7.44454 0.75138 7.76188 0.994047C8.08854 1.22738 8.35454 1.51205 8.55988 1.84805C8.76521 2.17471 8.91454 2.53871 9.00788 2.94005H7.77588C7.63588 2.45471 7.33254 2.06738 6.86588 1.77805C6.40854 1.48871 5.82988 1.34405 5.12988 1.34405ZM15.7417 10.36C14.967 10.36 14.2903 10.234 13.7117 9.98205C13.133 9.72071 12.6477 9.36605 12.2557 8.91805C11.8637 8.47005 11.5697 7.93805 11.3737 7.32205C11.1777 6.70605 11.0797 6.03405 11.0797 5.30605C11.0797 4.57805 11.1777 3.90605 11.3737 3.29005C11.5697 2.66471 11.8637 2.12805 12.2557 1.68005C12.6477 1.23205 13.133 0.882046 13.7117 0.630046C14.2903 0.368713 14.967 0.238046 15.7417 0.238046C16.507 0.238046 17.179 0.368713 17.7577 0.630046C18.3363 0.882046 18.8217 1.23205 19.2137 1.68005C19.6057 2.12805 19.8997 2.66471 20.0957 3.29005C20.2917 3.90605 20.3897 4.57805 20.3897 5.30605C20.3897 6.03405 20.2917 6.70605 20.0957 7.32205C19.8997 7.93805 19.6057 8.47005 19.2137 8.91805C18.8217 9.36605 18.3363 9.72071 17.7577 9.98205C17.179 10.234 16.507 10.36 15.7417 10.36ZM15.7417 1.34405C15.1537 1.34405 14.645 1.45138 14.2157 1.66605C13.7863 1.87138 13.4317 2.15605 13.1517 2.52005C12.8717 2.88405 12.6617 3.30871 12.5217 3.79405C12.3817 4.27005 12.3117 4.77405 12.3117 5.30605C12.3117 5.83805 12.377 6.34205 12.5077 6.81805C12.6477 7.29405 12.8577 7.71405 13.1377 8.07805C13.4177 8.44205 13.7723 8.73138 14.2017 8.94605C14.6403 9.15138 15.1537 9.25405 15.7417 9.25405C16.3297 9.25405 16.8383 9.15138 17.2677 8.94605C17.697 8.73138 18.047 8.44671 18.3177 8.09205C18.5977 7.72805 18.803 7.30805 18.9337 6.83205C19.0737 6.35605 19.1437 5.84738 19.1437 5.30605C19.1437 4.76471 19.0737 4.25605 18.9337 3.78005C18.803 3.29471 18.5977 2.87471 18.3177 2.52005C18.0377 2.15605 17.683 1.87138 17.2537 1.66605C16.8243 1.45138 16.3203 1.34405 15.7417 1.34405ZM22.836 10.248V0.350047H24.684L27.652 5.79605L30.578 0.350047H32.384V10.248H31.166V1.63805L27.904 7.65805H27.344L24.054 1.63805V10.248H22.836ZM35.3863 0.350047H38.8163C39.9083 0.350047 40.7623 0.620713 41.3783 1.16205C41.9943 1.69405 42.3023 2.52005 42.3023 3.64005C42.3023 4.20938 42.1996 4.70871 41.9943 5.13805C41.7983 5.56738 41.5229 5.92205 41.1683 6.20205C40.8696 6.44471 40.4963 6.63605 40.0483 6.77605C39.6003 6.91605 39.1056 6.98605 38.5643 6.98605H36.6043V10.248H35.3863V0.350047ZM38.5083 5.88005C38.8629 5.88005 39.2083 5.83805 39.5443 5.75405C39.8803 5.66071 40.1556 5.51605 40.3703 5.32005C40.5849 5.13338 40.7529 4.90471 40.8743 4.63405C40.9956 4.36338 41.0563 4.01338 41.0563 3.58405C41.0563 2.16538 40.2909 1.45605 38.7603 1.45605H36.6043V5.88005H38.5083ZM50.7734 10.248L49.9894 8.12005H45.0894L44.3054 10.248H42.9894L46.6714 0.350047H48.4214L52.0894 10.248H50.7734ZM47.5394 1.41405L45.4954 7.01405H49.5834L47.5394 1.41405ZM54.0063 10.248V0.350047H55.5603L60.7263 8.59605V0.350047H61.9443V10.248H60.4183L55.2243 2.03005V10.248H54.0063ZM66.1612 10.248H64.9432V0.350047H66.1612V10.248ZM69.1536 0.350047H75.8036V1.45605H70.3716V4.78805H75.2576V5.90805H70.3716V9.14205H75.8036V10.248H69.1536V0.350047ZM81.6886 1.34405C81.4272 1.34405 81.1612 1.36738 80.8906 1.41405C80.6292 1.46071 80.3912 1.54471 80.1766 1.66605C79.9619 1.77805 79.7846 1.93671 79.6446 2.14205C79.5139 2.33805 79.4486 2.59005 79.4486 2.89805C79.4486 3.27138 79.5466 3.57471 79.7426 3.80805C79.9386 4.03205 80.1766 4.20471 80.4566 4.32605C80.6806 4.41938 80.9186 4.49871 81.1706 4.56405C81.4226 4.62938 81.6792 4.69005 81.9406 4.74605C82.2112 4.80205 82.4726 4.85805 82.7246 4.91405C82.9859 4.97005 83.2379 5.04005 83.4806 5.12405C84.0499 5.32005 84.5026 5.60005 84.8386 5.96405C85.1839 6.32805 85.3566 6.80871 85.3566 7.40605C85.3566 7.96605 85.2586 8.42805 85.0626 8.79205C84.8759 9.15605 84.6192 9.45471 84.2926 9.68805C83.9752 9.92138 83.6019 10.094 83.1726 10.206C82.7526 10.3087 82.3046 10.36 81.8286 10.36C81.3526 10.36 80.8952 10.3134 80.4566 10.22C80.0272 10.1267 79.6352 9.97271 79.2806 9.75805C78.9259 9.54338 78.6226 9.26338 78.3706 8.91805C78.1186 8.57271 77.9412 8.15271 77.8386 7.65805H79.1126C79.2059 7.97538 79.3506 8.23671 79.5466 8.44205C79.7426 8.64738 79.9666 8.81071 80.2186 8.93205C80.4706 9.05338 80.7412 9.13738 81.0306 9.18405C81.3292 9.23071 81.6232 9.25405 81.9126 9.25405C82.1926 9.25405 82.4632 9.22605 82.7246 9.17005C82.9952 9.10471 83.2332 9.00671 83.4386 8.87605C83.6439 8.74538 83.8072 8.57738 83.9286 8.37205C84.0499 8.16671 84.1106 7.91938 84.1106 7.63005C84.1106 7.19138 83.9939 6.86471 83.7606 6.65005C83.5272 6.43538 83.2146 6.27205 82.8226 6.16005C82.5612 6.07605 82.2859 6.00605 81.9966 5.95005C81.7072 5.89405 81.4179 5.83338 81.1286 5.76805C80.8392 5.70271 80.5546 5.62805 80.2746 5.54405C79.9946 5.45071 79.7379 5.34338 79.5046 5.22205C79.1312 5.04471 78.8186 4.77405 78.5666 4.41005C78.3146 4.03671 78.1886 3.57005 78.1886 3.01005C78.1886 2.48738 78.2912 2.04871 78.4966 1.69405C78.7019 1.33938 78.9679 1.05471 79.2946 0.840046C79.6212 0.625379 79.9852 0.47138 80.3866 0.378046C80.7972 0.284713 81.2312 0.238046 81.6886 0.238046C82.0619 0.24738 82.3979 0.280046 82.6966 0.336047C83.0046 0.382713 83.2939 0.47138 83.5646 0.602047C83.9846 0.788713 84.3346 1.06871 84.6146 1.44205C84.8946 1.81538 85.0486 2.29605 85.0766 2.88405H83.8866C83.8492 2.59471 83.7606 2.35205 83.6206 2.15605C83.4899 1.96005 83.3266 1.80138 83.1306 1.68005C82.9346 1.55871 82.7106 1.47471 82.4586 1.42805C82.2159 1.37205 81.9592 1.34405 81.6886 1.34405ZM92.2708 0.350047H95.7428C96.2188 0.350047 96.6481 0.378047 97.0308 0.434046C97.4228 0.490046 97.7728 0.620713 98.0808 0.826046C98.3515 1.00338 98.5801 1.25538 98.7668 1.58205C98.9535 1.90871 99.0468 2.32405 99.0468 2.82805C99.0468 3.33205 98.9301 3.78005 98.6968 4.17205C98.4728 4.56405 98.1228 4.85338 97.6468 5.04005C98.2815 5.15205 98.7575 5.42271 99.0748 5.85205C99.3921 6.27205 99.5508 6.81805 99.5508 7.49005C99.5228 8.10605 99.3921 8.58671 99.1588 8.93205C98.9255 9.27738 98.6268 9.54805 98.2628 9.74405C97.8988 9.94005 97.4881 10.0754 97.0308 10.15C96.5828 10.2154 96.1301 10.248 95.6728 10.248H92.2708V0.350047ZM93.4888 1.45605V4.69005H95.3928C95.6541 4.69005 95.9248 4.67138 96.2048 4.63405C96.4848 4.59671 96.7368 4.51738 96.9608 4.39605C97.2221 4.26538 97.4321 4.08805 97.5908 3.86405C97.7588 3.63071 97.8475 3.31338 97.8568 2.91205C97.8568 2.59471 97.8008 2.34271 97.6888 2.15605C97.5768 1.96005 97.4228 1.81071 97.2268 1.70805C97.0308 1.60538 96.8068 1.54005 96.5548 1.51205C96.3028 1.47471 96.0368 1.45605 95.7568 1.45605H93.4888ZM95.6308 9.14205C95.9295 9.14205 96.2281 9.12805 96.5268 9.10005C96.8348 9.07205 97.1241 9.00205 97.3948 8.89005C97.6748 8.76871 97.8988 8.59605 98.0668 8.37205C98.2348 8.13871 98.3188 7.82605 98.3188 7.43405C98.3188 7.09805 98.2535 6.82271 98.1228 6.60805C98.0015 6.39338 97.8335 6.22538 97.6188 6.10405C97.4135 5.98271 97.1755 5.89871 96.9048 5.85205C96.6341 5.80538 96.3588 5.78205 96.0788 5.78205H93.4888V9.14205H95.6308ZM108.725 10.248L107.941 8.12005H103.041L102.257 10.248H100.941L104.623 0.350047H106.373L110.041 10.248H108.725ZM105.491 1.41405L103.447 7.01405H107.535L105.491 1.41405ZM115.742 1.34405C115.154 1.34405 114.65 1.45138 114.23 1.66605C113.82 1.88071 113.479 2.17005 113.208 2.53405C112.947 2.89805 112.756 3.31805 112.634 3.79405C112.513 4.26071 112.452 4.75071 112.452 5.26405C112.452 5.81471 112.518 6.33271 112.648 6.81805C112.779 7.30338 112.98 7.72805 113.25 8.09205C113.521 8.44671 113.866 8.73138 114.286 8.94605C114.706 9.15138 115.206 9.25405 115.784 9.25405C116.484 9.25405 117.072 9.10938 117.548 8.82005C118.024 8.53071 118.332 8.14338 118.472 7.65805H119.802C119.588 8.47938 119.135 9.13738 118.444 9.63205C117.754 10.1174 116.858 10.36 115.756 10.36C114.991 10.36 114.324 10.234 113.754 9.98205C113.185 9.73005 112.709 9.38005 112.326 8.93205C111.953 8.48405 111.673 7.95205 111.486 7.33605C111.3 6.72005 111.206 6.04338 111.206 5.30605C111.206 4.57805 111.3 3.90605 111.486 3.29005C111.673 2.67405 111.958 2.14205 112.34 1.69405C112.723 1.23671 113.199 0.882046 113.768 0.630046C114.338 0.368713 115.01 0.238046 115.784 0.238046C116.326 0.238046 116.811 0.30338 117.24 0.434046C117.679 0.564713 118.057 0.75138 118.374 0.994047C118.701 1.22738 118.967 1.51205 119.172 1.84805C119.378 2.17471 119.527 2.53871 119.62 2.94005H118.388C118.248 2.45471 117.945 2.06738 117.478 1.77805C117.021 1.48871 116.442 1.34405 115.742 1.34405ZM122.17 10.248V0.350047H123.388V4.91405H124.844L128.078 0.350047H129.478L125.922 5.26405L129.506 10.248H128.064L124.956 6.02005H123.388V10.248H122.17ZM131.48 0.350047H138.13V1.45605H132.698V4.78805H137.584V5.90805H132.698V9.14205H138.13V10.248H131.48V0.350047ZM140.585 0.350047H144.099C144.864 0.350047 145.536 0.47138 146.115 0.714046C146.703 0.94738 147.193 1.28338 147.585 1.72205C147.977 2.15138 148.271 2.67405 148.467 3.29005C148.663 3.89671 148.761 4.56871 148.761 5.30605C148.751 6.04338 148.649 6.71538 148.453 7.32205C148.257 7.92871 147.963 8.45138 147.571 8.89005C147.188 9.31938 146.707 9.65538 146.129 9.89805C145.55 10.1314 144.873 10.248 144.099 10.248H140.585V0.350047ZM141.803 1.45605V9.14205H144.015C144.519 9.14205 144.999 9.06738 145.457 8.91805C145.923 8.75938 146.32 8.48405 146.647 8.09205C146.945 7.74671 147.165 7.34071 147.305 6.87405C147.445 6.39805 147.515 5.87538 147.515 5.30605C147.515 4.71805 147.445 4.19538 147.305 3.73805C147.165 3.28071 146.955 2.88405 146.675 2.54805C146.395 2.21205 146.04 1.94605 145.611 1.75005C145.181 1.55405 144.673 1.45605 144.085 1.45605H141.803Z" fill="white"/>
</svg>
